<?xml version="1.0" encoding="utf-8"?>
<!-- Generator: Adobe Illustrator 23.0.6, SVG Export Plug-In . SVG Version: 6.00 Build 0)  -->
<svg version="1.1" id="Layer_1" xmlns="http://www.w3.org/2000/svg" xmlns:xlink="http://www.w3.org/1999/xlink" x="0px" y="0px"
	 viewBox="0 0 72 72" style="enable-background:new 0 0 72 72;" xml:space="preserve">
<style type="text/css">
	.st0{fill:#FF1891;}
</style>
<path class="st0" d="M54.39,47.84c-0.11,0.03-0.18,0.06-0.26,0.07c-3.7,0.85-7.45,1.38-11.23,1.66c-2.84,0.21-5.69,0.26-8.54,0.09
	c-3.02-0.18-6-0.59-8.93-1.37c-2.85-0.76-5.56-1.84-8.05-3.44c-3.53-2.27-6.25-5.3-8.38-8.89C7.14,32.8,5.93,29.4,5.02,25.87
	c-1.66-6.42-2.5-12.96-2.83-19.57c-0.03-0.69-0.07-1.38-0.1-2.09c-0.14,0-0.24-0.01-0.35,0C1.37,4.27,1,4.33,0.63,4.38
	c-0.22,0.03-0.3,0.12-0.3,0.35c-0.04,3.83,0.01,7.67,0.3,11.49c0.3,3.84,0.8,7.64,1.62,11.4c0.97,4.42,2.37,8.68,4.44,12.71
	c2.88,5.6,6.92,10.17,12.22,13.6c4.9,3.18,10.29,5.08,16.02,6.12c2.81,0.51,5.64,0.78,8.49,0.86c3.58,0.11,7.15-0.08,10.7-0.58
	c0.59-0.08,1.18-0.18,1.79-0.28c0.33,2.66,0.66,5.3,0.99,8.02c5.06-5.8,10.08-11.54,15.11-17.3c-6.28-4.2-12.51-8.38-18.8-12.59
	C53.6,41.44,54,44.62,54.39,47.84z"/>
</svg>
